HIERARCHY
ROOT Hips
{
	OFFSET -341.196167 -577.024780 88.986252
	CHANNELS 6 Xposition Yposition Zposition Zrotation Yrotation Xrotation
	JOINT Spine
	{
		OFFSET 0.000000 2.080078 8.814247
		CHANNELS 6 Xposition Yposition Zposition Zrotation Yrotation Xrotation
		JOINT Spine1
		{
			OFFSET 0.000000 0.000000 8.844139
			CHANNELS 6 Xposition Yposition Zposition Zrotation Yrotation Xrotation
			JOINT Spine2
			{
				OFFSET 0.000000 0.000000 11.682266
				CHANNELS 6 Xposition Yposition Zposition Zrotation Yrotation Xrotation
				JOINT Spine3
				{
					OFFSET 0.000000 0.000000 11.746704
					CHANNELS 6 Xposition Yposition Zposition Zrotation Yrotation Xrotation
					JOINT Neck
					{
						OFFSET 0.000000 0.000000 17.658264
						CHANNELS 6 Xposition Yposition Zposition Zrotation Yrotation Xrotation
						JOINT Neck1
						{
							OFFSET 0.000000 0.000000 5.101517
							CHANNELS 6 Xposition Yposition Zposition Zrotation Yrotation Xrotation
							JOINT Head
							{
								OFFSET 0.000000 0.000000 5.101517
								CHANNELS 6 Xposition Yposition Zposition Zrotation Yrotation Xrotation
								JOINT HeadEnd
								{
									OFFSET 0.000000 0.000000 11.655090
									CHANNELS 6 Xposition Yposition Zposition Zrotation Yrotation Xrotation
									End Site
									{
										OFFSET 0.000000 0.000000 0.100006
									}
								}
							}
						}
					}
					JOINT RightShoulder
					{
						OFFSET -2.625397 0.000000 11.175217
						CHANNELS 6 Xposition Yposition Zposition Zrotation Yrotation Xrotation
						JOINT RightArm
						{
							OFFSET 0.000000 0.000000 10.434723
							CHANNELS 6 Xposition Yposition Zposition Zrotation Yrotation Xrotation
							JOINT RightForeArm
							{
								OFFSET 0.000000 0.000000 29.628418
								CHANNELS 6 Xposition Yposition Zposition Zrotation Yrotation Xrotation
								JOINT RightHand
								{
									OFFSET 0.000000 0.000000 22.857605
									CHANNELS 6 Xposition Yposition Zposition Zrotation Yrotation Xrotation
									JOINT RightHandThumb1
									{
										OFFSET -2.867310 -2.944275 3.959564
										CHANNELS 6 Xposition Yposition Zposition Zrotation Yrotation Xrotation
										JOINT RightHandThumb2
										{
											OFFSET 0.000000 0.000000 3.350403
											CHANNELS 6 Xposition Yposition Zposition Zrotation Yrotation Xrotation
											JOINT RightHandThumb3
											{
												OFFSET 0.000000 0.000000 3.756516
												CHANNELS 6 Xposition Yposition Zposition Zrotation Yrotation Xrotation
												JOINT RightHandThumb4
												{
													OFFSET 0.000000 0.000000 3.147339
													CHANNELS 6 Xposition Yposition Zposition Zrotation Yrotation Xrotation
													End Site
													{
														OFFSET 0.000000 0.000000 0.100006
													}
												}
											}
										}
									}
									JOINT RightHandIndex1
									{
										OFFSET -0.086761 -2.345276 10.030899
										CHANNELS 6 Xposition Yposition Zposition Zrotation Yrotation Xrotation
										JOINT RightHandIndex2
										{
											OFFSET 0.000000 0.000000 4.061096
											CHANNELS 6 Xposition Yposition Zposition Zrotation Yrotation Xrotation
											JOINT RightHandIndex3
											{
												OFFSET 0.000000 0.000000 3.248871
												CHANNELS 6 Xposition Yposition Zposition Zrotation Yrotation Xrotation
												JOINT RightHandIndex4
												{
													OFFSET 0.000000 0.000000 2.639709
													CHANNELS 6 Xposition Yposition Zposition Zrotation Yrotation Xrotation
													End Site
													{
														OFFSET 0.000000 0.000000 0.100006
													}
												}
											}
										}
									}
									JOINT RightHandMiddle1
									{
										OFFSET 0.104095 -0.006775 9.502945
										CHANNELS 6 Xposition Yposition Zposition Zrotation Yrotation Xrotation
										JOINT RightHandMiddle2
										{
											OFFSET 0.000000 0.000000 4.568726
											CHANNELS 6 Xposition Yposition Zposition Zrotation Yrotation Xrotation
											JOINT RightHandMiddle3
											{
												OFFSET 0.000000 0.000000 3.654984
												CHANNELS 6 Xposition Yposition Zposition Zrotation Yrotation Xrotation
												JOINT RightHandMiddle4
												{
													OFFSET 0.000000 0.000000 2.741241
													CHANNELS 6 Xposition Yposition Zposition Zrotation Yrotation Xrotation
													End Site
													{
														OFFSET 0.000000 0.000000 0.100006
													}
												}
											}
										}
									}
									JOINT RightHandRing1
									{
										OFFSET 0.086761 2.267456 8.921707
										CHANNELS 6 Xposition Yposition Zposition Zrotation Yrotation Xrotation
										JOINT RightHandRing2
										{
											OFFSET 0.000000 0.000000 4.061096
											CHANNELS 6 Xposition Yposition Zposition Zrotation Yrotation Xrotation
											JOINT RightHandRing3
											{
												OFFSET 0.000000 0.000000 3.654984
												CHANNELS 6 Xposition Yposition Zposition Zrotation Yrotation Xrotation
												JOINT RightHandRing4
												{
													OFFSET 0.000000 0.000000 2.741241
													CHANNELS 6 Xposition Yposition Zposition Zrotation Yrotation Xrotation
													End Site
													{
														OFFSET 0.000000 0.000000 0.100006
													}
												}
											}
										}
									}
									JOINT RightHandPinky1
									{
										OFFSET -0.173492 4.467224 7.976990
										CHANNELS 6 Xposition Yposition Zposition Zrotation Yrotation Xrotation
										JOINT RightHandPinky2
										{
											OFFSET 0.000000 0.000000 3.350403
											CHANNELS 6 Xposition Yposition Zposition Zrotation Yrotation Xrotation
											JOINT RightHandPinky3
											{
												OFFSET 0.000000 0.000000 2.842758
												CHANNELS 6 Xposition Yposition Zposition Zrotation Yrotation Xrotation
												JOINT RightHandPinky4
												{
													OFFSET 0.000000 0.000000 2.639709
													CHANNELS 6 Xposition Yposition Zposition Zrotation Yrotation Xrotation
													End Site
													{
														OFFSET 0.000000 0.000000 0.100006
													}
												}
											}
										}
									}
									JOINT RightForeArmEnd
									{
										OFFSET 0.000000 0.000000 0.000000
										CHANNELS 6 Xposition Yposition Zposition Zrotation Yrotation Xrotation
										End Site
										{
											OFFSET 0.000000 0.000000 0.100006
										}
									}
								}
								JOINT RightArmEnd
								{
									OFFSET 0.000000 0.000000 0.000000
									CHANNELS 6 Xposition Yposition Zposition Zrotation Yrotation Xrotation
									End Site
									{
										OFFSET 0.000000 0.000000 0.100006
									}
								}
							}
						}
					}
					JOINT LeftShoulder
					{
						OFFSET 2.625397 0.000000 11.175217
						CHANNELS 6 Xposition Yposition Zposition Zrotation Yrotation Xrotation
						JOINT LeftArm
						{
							OFFSET 0.000000 0.000000 10.813629
							CHANNELS 6 Xposition Yposition Zposition Zrotation Yrotation Xrotation
							JOINT LeftForeArm
							{
								OFFSET 0.000000 0.000000 28.724777
								CHANNELS 6 Xposition Yposition Zposition Zrotation Yrotation Xrotation
								JOINT LeftHand
								{
									OFFSET 0.644379 0.328857 25.716171
									CHANNELS 6 Xposition Yposition Zposition Zrotation Yrotation Xrotation
									JOINT LeftHandThumb1
									{
										OFFSET 2.867310 -2.944275 3.959564
										CHANNELS 6 Xposition Yposition Zposition Zrotation Yrotation Xrotation
										JOINT LeftHandThumb2
										{
											OFFSET 0.000000 0.000000 3.350403
											CHANNELS 6 Xposition Yposition Zposition Zrotation Yrotation Xrotation
											JOINT LeftHandThumb3
											{
												OFFSET 0.000000 0.000000 3.756516
												CHANNELS 6 Xposition Yposition Zposition Zrotation Yrotation Xrotation
												JOINT LeftHandThumb4
												{
													OFFSET 0.000000 0.000000 3.100006
													CHANNELS 6 Xposition Yposition Zposition Zrotation Yrotation Xrotation
													End Site
													{
														OFFSET 0.000000 0.000000 0.100006
													}
												}
											}
										}
									}
									JOINT LeftHandIndex1
									{
										OFFSET 0.086761 -2.345276 10.030899
										CHANNELS 6 Xposition Yposition Zposition Zrotation Yrotation Xrotation
										JOINT LeftHandIndex2
										{
											OFFSET 0.000000 0.000000 4.061096
											CHANNELS 6 Xposition Yposition Zposition Zrotation Yrotation Xrotation
											JOINT LeftHandIndex3
											{
												OFFSET 0.000000 0.000000 3.248871
												CHANNELS 6 Xposition Yposition Zposition Zrotation Yrotation Xrotation
												JOINT LeftHandIndex4
												{
													OFFSET 0.000000 0.000000 2.639709
													CHANNELS 6 Xposition Yposition Zposition Zrotation Yrotation Xrotation
													End Site
													{
														OFFSET 0.000000 0.000000 0.100006
													}
												}
											}
										}
									}
									JOINT LeftHandMiddle1
									{
										OFFSET -0.104095 -0.006775 9.502945
										CHANNELS 6 Xposition Yposition Zposition Zrotation Yrotation Xrotation
										JOINT LeftHandMiddle2
										{
											OFFSET 0.000000 0.000000 4.568726
											CHANNELS 6 Xposition Yposition Zposition Zrotation Yrotation Xrotation
											JOINT LeftHandMiddle3
											{
												OFFSET 0.000000 0.000000 3.654984
												CHANNELS 6 Xposition Yposition Zposition Zrotation Yrotation Xrotation
												JOINT LeftHandMiddle4
												{
													OFFSET 0.000000 0.000000 2.741241
													CHANNELS 6 Xposition Yposition Zposition Zrotation Yrotation Xrotation
													End Site
													{
														OFFSET 0.000000 0.000000 0.100006
													}
												}
											}
										}
									}
									JOINT LeftHandRing1
									{
										OFFSET -0.086761 2.267456 8.921707
										CHANNELS 6 Xposition Yposition Zposition Zrotation Yrotation Xrotation
										JOINT LeftHandRing2
										{
											OFFSET 0.000000 0.000000 4.061096
											CHANNELS 6 Xposition Yposition Zposition Zrotation Yrotation Xrotation
											JOINT LeftHandRing3
											{
												OFFSET 0.000000 0.000000 3.654984
												CHANNELS 6 Xposition Yposition Zposition Zrotation Yrotation Xrotation
												JOINT LeftHandRing4
												{
													OFFSET 0.000000 0.000000 2.741241
													CHANNELS 6 Xposition Yposition Zposition Zrotation Yrotation Xrotation
													End Site
													{
														OFFSET 0.000000 0.000000 0.100006
													}
												}
											}
										}
									}
									JOINT LeftHandPinky1
									{
										OFFSET 0.173492 4.467224 7.976990
										CHANNELS 6 Xposition Yposition Zposition Zrotation Yrotation Xrotation
										JOINT LeftHandPinky2
										{
											OFFSET 0.000000 0.000000 3.350403
											CHANNELS 6 Xposition Yposition Zposition Zrotation Yrotation Xrotation
											JOINT LeftHandPinky3
											{
												OFFSET 0.000000 0.000000 2.842758
												CHANNELS 6 Xposition Yposition Zposition Zrotation Yrotation Xrotation
												JOINT LeftHandPinky4
												{
													OFFSET 0.000000 0.000000 2.639709
													CHANNELS 6 Xposition Yposition Zposition Zrotation Yrotation Xrotation
													End Site
													{
														OFFSET 0.000000 0.000000 0.100006
													}
												}
											}
										}
									}
									JOINT LeftForeArmEnd
									{
										OFFSET 0.000000 0.000000 0.000000
										CHANNELS 6 Xposition Yposition Zposition Zrotation Yrotation Xrotation
										End Site
										{
											OFFSET 0.000000 0.000000 0.100006
										}
									}
								}
								JOINT LeftArmEnd
								{
									OFFSET 0.000000 0.000000 0.000000
									CHANNELS 6 Xposition Yposition Zposition Zrotation Yrotation Xrotation
									End Site
									{
										OFFSET 0.000000 0.000000 0.100006
									}
								}
							}
						}
					}
				}
			}
		}
	}
	JOINT RightUpLeg
	{
		OFFSET -11.289948 0.000000 0.000000
		CHANNELS 6 Xposition Yposition Zposition Zrotation Yrotation Xrotation
		JOINT RightLeg
		{
			OFFSET 0.000000 0.000000 -38.200329
			CHANNELS 6 Xposition Yposition Zposition Zrotation Yrotation Xrotation
			JOINT RightFoot
			{
				OFFSET 0.000000 0.000000 -39.900856
				CHANNELS 6 Xposition Yposition Zposition Zrotation Yrotation Xrotation
				JOINT RightToeBase
				{
					OFFSET 0.000000 -15.261658 0.000001
					CHANNELS 6 Xposition Yposition Zposition Zrotation Yrotation Xrotation
					JOINT RightToeBaseEnd
					{
						OFFSET 0.000000 -7.370728 0.000000
						CHANNELS 6 Xposition Yposition Zposition Zrotation Yrotation Xrotation
						End Site
						{
							OFFSET 0.000000 0.000000 0.100000
						}
					}
				}
				JOINT RightLegEnd
				{
					OFFSET 0.000000 0.000000 0.000000
					CHANNELS 6 Xposition Yposition Zposition Zrotation Yrotation Xrotation
					End Site
					{
						OFFSET 0.000000 0.000000 0.100000
					}
				}
			}
			JOINT RightUpLegEnd
			{
				OFFSET 0.000000 0.000000 0.000000
				CHANNELS 6 Xposition Yposition Zposition Zrotation Yrotation Xrotation
				End Site
				{
					OFFSET 0.000000 0.000000 0.099998
				}
			}
		}
	}
	JOINT LeftUpLeg
	{
		OFFSET 11.315674 0.000000 0.000000
		CHANNELS 6 Xposition Yposition Zposition Zrotation Yrotation Xrotation
		JOINT LeftLeg
		{
			OFFSET 0.000000 0.000000 -38.200329
			CHANNELS 6 Xposition Yposition Zposition Zrotation Yrotation Xrotation
			JOINT LeftFoot
			{
				OFFSET 0.000000 0.000000 -39.900856
				CHANNELS 6 Xposition Yposition Zposition Zrotation Yrotation Xrotation
				JOINT LeftToeBase
				{
					OFFSET 0.000000 -15.261658 0.000001
					CHANNELS 6 Xposition Yposition Zposition Zrotation Yrotation Xrotation
					JOINT LeftToeBaseEnd
					{
						OFFSET 0.000000 -7.539978 0.000000
						CHANNELS 6 Xposition Yposition Zposition Zrotation Yrotation Xrotation
						End Site
						{
							OFFSET 0.000000 0.000000 0.100000
						}
					}
				}
				JOINT LeftLegEnd
				{
					OFFSET 0.000000 0.000000 0.000000
					CHANNELS 6 Xposition Yposition Zposition Zrotation Yrotation Xrotation
					End Site
					{
						OFFSET 0.000000 0.000000 0.100000
					}
				}
			}
			JOINT LeftUpLegEnd
			{
				OFFSET 0.000000 0.000000 0.000000
				CHANNELS 6 Xposition Yposition Zposition Zrotation Yrotation Xrotation
				End Site
				{
					OFFSET 0.000000 0.000000 0.099998
				}
			}
		}
	}
}
MOTION
Frames: 2
Frame Time: 0.016667
-28.311188 4.592468 87.723587 32.952446 1.611503 -9.089224 0.000012 2.080052 8.814255 -0.336542 -3.083246 6.914085 0.000011 0.000021 8.844153 0.188514 1.394412 3.489836 -0.000010 -0.000016 11.682276 -2.023938 1.235925 3.066060 0.000000 0.000019 11.746722 -0.965391 1.918099 1.254418 -0.000011 -0.000027 17.658253 -4.297428 -6.565387 7.400489 0.000010 -0.000015 5.101520 -1.267938 -0.111480 -1.783187 0.000013 0.000081 5.101555 -0.526832 -0.524137 -15.217057 0.000011 -0.000005 11.655071 0.000001 -0.000000 0.000000 -2.625405 -0.000027 11.175221 11.895630 -89.090303 0.101777 -0.000038 -0.000010 10.434738 -62.647110 -53.616698 52.304796 0.000008 -0.000015 29.628399 18.124599 1.468394 63.206427 -0.000046 -0.000025 22.857605 -5.195112 33.845517 11.086666 -2.867301 -2.944244 3.959549 32.486890 -26.400047 38.690549 -0.000008 0.000015 3.350361 -32.871184 10.485750 -55.441749 -0.000008 0.000000 3.756523 -21.866980 10.798255 -37.858898 -0.000009 -0.000006 3.147339 -0.000000 -0.000000 -0.000000 -0.086787 -2.345262 10.030896 -89.227966 -71.504718 87.796392 -0.000023 0.000044 4.061089 -8.521609 -61.618005 15.075407 -0.000034 0.000004 3.248856 -9.021774 -61.618005 15.075508 0.000005 -0.000018 2.639724 0.000002 0.000001 -0.000001 0.104052 -0.006778 9.502924 -78.594522 -76.238626 81.887869 -0.000013 -0.000033 4.568741 -2.721147 -61.100311 5.449334 -0.000015 0.000015 3.655012 -3.220599 -61.100325 5.446667 0.000013 0.000009 2.741259 -0.000001 0.000002 0.000001 0.086699 2.267433 8.921680 65.163037 -96.114511 -56.219584 0.000002 -0.000020 4.061085 3.526159 -64.072516 -7.226875 -0.000008 0.000000 3.654997 4.526132 -64.072543 -7.226698 -0.000000 -0.000009 2.741227 0.000000 -0.000002 -0.000003 -0.173519 4.467203 7.976995 -30.326976 -95.093165 45.001391 -0.000015 -0.000013 3.350372 10.710525 -61.672394 -21.136254 -0.000019 0.000069 2.842781 12.710501 -61.672421 -21.136259 -0.000012 -0.000019 2.639708 0.000002 -0.000000 0.000001 0.000002 0.000019 0.000002 -0.000002 -0.000003 -0.000000 0.000011 0.000056 -0.000001 0.000001 0.000000 -0.000003 2.625382 0.000012 11.175202 -8.851497 90.305606 0.319585 0.000000 -0.000008 10.813622 52.231140 48.226412 44.408620 -0.000007 -0.000036 28.724728 2.081733 -0.016021 34.788582 0.644337 0.328854 25.716175 4.593299 -25.079618 -4.531065 2.867294 -2.944275 3.959595 -32.486883 26.400035 38.690576 0.000015 0.000000 3.350395 32.871153 -10.485705 -55.441776 0.000015 0.000000 3.756466 21.866948 -10.798290 -37.858851 0.000014 0.000003 3.100029 -0.000000 0.000001 -0.000000 0.086803 -2.345276 10.030901 12.614782 82.989298 4.900835 -0.000011 -0.000004 4.061089 -6.792003 58.150229 -13.075238 -0.000008 -0.000013 3.248871 -7.291995 58.150257 -13.075234 0.000009 -0.000006 2.639712 0.000001 -0.000001 -0.000003 -0.104103 -0.006808 9.502937 39.372544 79.853873 36.055664 0.000010 0.000002 4.568733 -2.100276 57.568188 -4.731145 0.000008 -0.000013 3.654999 -2.600260 57.568140 -4.731115 0.000002 0.000000 2.741217 -0.000000 0.000003 0.000001 -0.086760 2.267432 8.921715 81.049169 75.309119 83.533938 0.000006 -0.000028 4.061094 2.814248 61.345897 6.426475 0.000002 0.000019 3.654987 3.814267 61.345911 6.426499 -0.000000 0.000008 2.741239 -0.000002 0.000001 -0.000001 0.173481 4.467216 7.976978 79.949878 66.869915 90.558937 0.000000 -0.000067 3.350441 9.395866 59.946678 19.630544 0.000015 -0.000099 2.842781 11.395885 59.946678 19.630554 -0.000029 -0.000070 2.639724 0.000001 0.000000 0.000000 -0.000006 0.000005 -0.000002 -0.000002 0.000004 0.000001 0.000021 0.000011 0.000006 -0.000001 0.000000 -0.000002 -11.289980 -0.000042 0.000004 -22.772274 1.246088 13.909988 0.000015 0.000017 -38.200325 -0.845327 0.096370 6.502571 0.000032 -0.000022 -39.900867 -22.173321 -1.370560 14.330780 0.000010 -15.261647 -0.000002 1.594044 1.084658 -16.637951 0.000006 -7.370725 0.000000 -0.000000 0.000000 0.000001 0.000001 0.000006 0.000002 -0.000001 0.000001 0.000002 -0.000000 0.000006 0.000003 -0.000001 -0.000000 0.000001 11.315685 0.000015 0.000004 -8.792515 -8.164843 -4.592706 -0.000002 -0.000004 -38.200317 0.947722 -0.401758 22.971063 0.000019 -0.000067 -39.900856 7.988890 3.431699 18.678592 -0.000015 -15.261721 0.000014 -0.495282 -1.652932 -22.425229 -0.000043 -7.539888 -0.000000 0.000006 -0.000000 -0.000000 -0.000041 0.000087 -0.000002 -0.000004 0.000002 -0.000001 0.000018 0.000020 -0.000003 -0.000004 -0.000001 0.000001 
-28.156830 4.575073 87.706894 31.432852 1.870187 -9.207234 -0.000021 2.080054 8.814251 -0.375288 -3.726596 7.014144 0.000008 -0.000027 8.844137 0.040491 0.806488 3.467367 0.000014 0.000017 11.682276 -1.046967 1.568336 3.195990 0.000014 0.000026 11.746708 -0.629011 2.527183 1.371839 -0.000004 -0.000008 17.658276 -2.962240 -6.311048 7.002353 -0.000005 0.000030 5.101540 -0.259134 -0.386683 -1.835472 0.000001 0.000008 5.101558 -0.403625 -0.481859 -15.055718 -0.000001 -0.000012 11.655090 0.000002 0.000000 0.000000 -2.625397 0.000004 11.175259 12.566425 -89.045135 0.193446 -0.000015 -0.000002 10.434700 -60.465786 -53.160773 50.896961 0.000000 -0.000015 29.628464 17.546642 1.554891 63.201796 -0.000061 -0.000075 22.857597 -1.631885 33.035894 11.919127 -2.867314 -2.944244 3.959564 32.486886 -26.400047 38.690587 -0.000015 0.000031 3.350380 -32.871180 10.485735 -55.441759 -0.000015 -0.000015 3.756516 -21.866986 10.798259 -37.858892 -0.000013 -0.000037 3.147353 -0.000003 0.000001 -0.000001 -0.086788 -2.345263 10.030906 -89.808791 -71.507709 87.580114 -0.000019 0.000023 4.061119 -8.550662 -61.663959 15.106838 -0.000011 0.000019 3.248856 -9.050635 -61.663931 15.106819 -0.000003 0.000017 2.639733 -0.000002 0.000002 -0.000001 0.104107 -0.006767 9.502940 -79.031511 -76.257867 81.634892 -0.000017 0.000007 4.568729 -2.725816 -61.145049 5.457826 -0.000022 -0.000013 3.654974 -3.225809 -61.145062 5.457826 -0.000027 -0.000018 2.741232 0.000001 0.000001 -0.000000 0.086737 2.267431 8.921730 63.657841 -96.187177 -55.095820 -0.000027 -0.000007 4.061104 3.567639 -64.214795 -7.273418 0.000000 0.000008 3.654993 4.567633 -64.214775 -7.273424 0.000001 -0.000025 2.741282 0.000003 0.000001 -0.000000 -0.173464 4.467216 7.976996 -28.435334 -95.410305 43.056102 0.000000 0.000011 3.350418 10.903322 -61.906799 -21.355049 -0.000019 -0.000019 2.842766 12.903494 -61.906792 -21.355198 0.000010 -0.000008 2.639701 0.000001 0.000001 -0.000002 0.000000 0.000018 -0.000007 -0.000002 -0.000001 0.000001 -0.000021 0.000014 -0.000004 -0.000002 -0.000002 0.000001 2.625404 -0.000028 11.175255 -12.901434 89.981541 -4.462480 0.000015 0.000002 10.813637 52.090287 49.033132 41.434349 -0.000012 -0.000021 28.724741 2.014089 0.012381 34.996100 0.644371 0.328844 25.716171 4.149652 -24.720541 -4.659183 2.867301 -2.944275 3.959625 -32.486955 26.399998 38.690450 0.000023 -0.000046 3.350430 32.871180 -10.485736 -55.441725 0.000000 -0.000046 3.756516 21.866955 -10.798329 -37.858834 0.000000 -0.000008 3.100014 0.000001 -0.000001 -0.000000 0.086742 -2.345254 10.030926 11.713599 82.457377 3.565866 -0.000042 0.000027 4.061104 -6.652790 57.830460 -12.911081 -0.000011 -0.000019 3.248901 -7.153355 57.830665 -12.911570 0.000009 -0.000013 2.639713 0.000002 -0.000000 0.000001 -0.104126 -0.006774 9.502960 37.522935 79.441473 33.903912 0.000010 0.000002 4.568729 -2.046244 57.213909 -4.670867 -0.000019 -0.000084 3.654989 -2.556090 57.213725 -4.678612 -0.000038 -0.000028 2.741222 -0.000004 0.000001 0.000001 -0.086756 2.267483 8.921734 79.105134 75.218927 81.165877 0.000019 -0.000038 4.061092 2.727489 60.971391 6.327439 0.000008 -0.000031 3.655001 3.727486 60.971357 6.327439 0.000006 0.000009 2.741248 -0.000001 0.000001 -0.000000 0.173498 4.467178 7.977004 78.926032 66.766144 88.830613 0.000015 -0.000069 3.350418 9.132339 59.571414 19.325499 -0.000023 -0.000092 2.842789 11.132361 59.571435 19.325522 -0.000032 -0.000053 2.639714 -0.000000 -0.000000 -0.000000 0.000012 0.000014 0.000051 -0.000003 0.000006 -0.000001 -0.000000 -0.000005 -0.000006 -0.000000 -0.000001 -0.000000 -11.289968 -0.000044 -0.000019 -21.707791 0.969881 13.919309 -0.000008 0.000025 -38.200325 -0.868604 0.101062 6.636000 0.000007 -0.000087 -39.900867 -21.737977 -1.475114 14.451166 0.000009 -15.261670 0.000000 1.602023 1.173455 -16.665759 -0.000012 -7.370725 0.000000 -0.000000 -0.000000 0.000001 -0.000001 -0.000009 -0.000000 0.000002 0.000000 -0.000002 0.000000 0.000005 0.000001 -0.000001 -0.000000 -0.000000 11.315683 0.000021 -0.000011 -7.922554 -8.494710 -4.714569 0.000002 -0.000036 -38.200325 0.931510 -0.416718 24.099657 0.000003 -0.000017 -39.900867 8.475745 3.716568 18.340410 -0.000005 -15.261712 0.000014 -0.533857 -1.613213 -22.509117 -0.000040 -7.539918 -0.000001 0.000000 -0.000000 -0.000000 -0.000040 0.000049 -0.000001 0.000002 -0.000000 0.000002 -0.000000 -0.000013 -0.000000 0.000002 -0.000000 0.000000 
